<?xml version="1.0" encoding="UTF-8"?>
<svg width="86px" height="26px" viewBox="0 0 86 26" version="1.1" xmlns="http://www.w3.org/2000/svg" xmlns:xlink="http://www.w3.org/1999/xlink">
    <!-- Generator: Sketch 54.1 (76490) - https://sketchapp.com -->
    <title>DiPA-Logo weiss</title>
    <desc>Created with Sketch.</desc>
    <g id="DiPA-Logo-weiss" stroke="none" stroke-width="1" fill="none" fill-rule="evenodd">
        <g id="Group-27" fill="#FFFFFF">
            <path d="M26.2421,15.8697 C29.3107,15.8697 31.2207,14.5201 31.2207,11.3495 C31.2207,8.3191 29.6927,7.084 26.3567,7.084 L24.2558,7.084 L24.2558,15.8697 L26.2421,15.8697 Z M26.3567,8.4974 C28.394,8.4974 29.4381,9.2359 29.4381,11.3495 C29.4381,13.6033 28.3303,14.4564 26.2421,14.4564 L25.962,14.4564 L25.962,8.4974 L26.3567,8.4974 Z" id="Fill-1"></path>
            <path d="M32.6722,15.8697 L34.2766,15.8697 L34.2766,9.6687 L32.6722,9.6687 L32.6722,15.8697 Z M34.4039,7.6952 C34.4039,7.1222 34.0219,6.7657 33.4744,6.7657 C32.9142,6.7657 32.5322,7.1222 32.5322,7.6952 C32.5322,8.2554 32.9142,8.612 33.4744,8.612 C34.0219,8.612 34.4039,8.2554 34.4039,7.6952 Z" id="Fill-2"></path>
            <path d="M41.98,9.9871 C41.98,8.1408 40.8213,7.084 38.3257,7.084 L36.1101,7.084 L36.1101,15.8697 L37.8164,15.8697 L37.8164,13.0558 L38.262,13.0558 C40.6303,13.0558 41.98,11.8716 41.98,9.9871 Z M40.1847,10.0253 C40.1847,11.0694 39.5735,11.6551 38.262,11.6551 L37.8164,11.6551 L37.8164,8.4846 L38.3257,8.4846 C39.599,8.4846 40.1847,9.0449 40.1847,10.0253 Z" id="Fill-3"></path>
            <path d="M49.6835,15.8697 L46.462,7.084 L45.1251,7.084 L41.8909,15.8697 L43.5971,15.8697 L44.3611,13.5014 L47.0732,13.5014 L47.8372,15.8697 L49.6835,15.8697 Z M46.704,12.2791 L44.7431,12.2791 L45.7108,9.2741 L45.7363,9.2741 L46.704,12.2791 Z" id="Fill-4"></path>
            <path d="M25.1614,23.5833 C26.8834,23.5833 27.8914,22.7993 27.8914,21.0563 C27.8914,19.4113 27.0654,18.7533 25.2454,18.7533 L24.2514,18.7533 L24.2514,23.5833 L25.1614,23.5833 Z M25.2454,19.2783 C26.5404,19.2783 27.2404,19.7333 27.2404,21.0563 C27.2404,22.4913 26.5054,23.0583 25.1614,23.0583 L24.8604,23.0583 L24.8604,19.2783 L25.2454,19.2783 Z" id="Fill-5"></path>
            <path d="M29.5154,19.0123 C29.5154,18.7673 29.3334,18.6063 29.1094,18.6063 C28.8854,18.6063 28.7104,18.7673 28.7104,19.0123 C28.7104,19.2573 28.8854,19.4113 29.1094,19.4113 C29.3334,19.4113 29.5154,19.2573 29.5154,19.0123 Z M28.8224,23.5833 L29.3894,23.5833 L29.3894,20.2233 L28.8224,20.2233 L28.8224,23.5833 Z" id="Fill-6"></path>
            <path d="M33.2324,20.2233 L32.0704,20.2233 C31.9164,20.1673 31.7484,20.1393 31.5664,20.1393 C30.8594,20.1393 30.2924,20.5173 30.2924,21.2733 C30.2924,21.7703 30.5164,22.0993 30.8594,22.2673 L30.8594,22.2813 C30.7684,22.3233 30.4604,22.4913 30.4604,22.8413 C30.4604,23.0303 30.5234,23.2053 30.6704,23.3173 L30.6704,23.3313 C30.4674,23.4363 30.0824,23.6463 30.0824,24.1573 C30.0824,24.7593 30.5444,25.0673 31.3424,25.0673 C32.5114,25.0673 33.1204,24.4793 33.1204,23.8423 C33.1204,23.2473 32.7144,22.9533 32.0074,22.9533 L31.3214,22.9533 C31.0694,22.9533 30.9644,22.8553 30.9644,22.7153 C30.9644,22.5333 31.1324,22.4353 31.2444,22.3863 C31.3354,22.4003 31.4264,22.4073 31.5244,22.4073 C32.2734,22.4073 32.8404,21.9873 32.8404,21.2733 C32.8404,21.0493 32.7704,20.8393 32.6514,20.6643 L33.1624,20.6643 L33.2324,20.2233 Z M31.2654,23.4783 L32.0074,23.4783 C32.3854,23.4783 32.5534,23.6043 32.5534,23.9263 C32.5534,24.2693 32.2034,24.5843 31.3844,24.5843 C30.8804,24.5843 30.6284,24.4233 30.6284,24.0453 C30.6284,23.7233 30.8034,23.5553 30.9784,23.4503 C31.0624,23.4713 31.1534,23.4783 31.2654,23.4783 Z M32.2874,21.2733 C32.2874,21.7563 31.9444,21.9383 31.5594,21.9383 C31.1884,21.9383 30.8454,21.7563 30.8454,21.2733 C30.8454,20.7903 31.1884,20.6083 31.5734,20.6083 C31.9444,20.6083 32.2874,20.7903 32.2874,21.2733 Z" id="Fill-7"></path>
            <path d="M34.6114,19.0123 C34.6114,18.7673 34.4294,18.6063 34.2054,18.6063 C33.9814,18.6063 33.8064,18.7673 33.8064,19.0123 C33.8064,19.2573 33.9814,19.4113 34.2054,19.4113 C34.4294,19.4113 34.6114,19.2573 34.6114,19.0123 Z M33.9184,23.5833 L34.4854,23.5833 L34.4854,20.2233 L33.9184,20.2233 L33.9184,23.5833 Z" id="Fill-8"></path>
            <path d="M37.1734,20.2233 L36.2354,20.2233 L36.2354,19.2853 L35.7314,19.2853 L35.6684,20.2233 L35.2064,20.3073 L35.2064,20.7063 L35.6684,20.7063 L35.6684,22.5193 C35.6684,23.2893 35.9274,23.6673 36.5854,23.6673 C36.9424,23.6673 37.1314,23.5553 37.1874,23.5203 L37.1314,23.0653 C37.0614,23.1003 36.9214,23.1633 36.7394,23.1633 C36.3684,23.1633 36.2354,22.9673 36.2354,22.4423 L36.2354,20.7063 L37.1034,20.7063 L37.1734,20.2233 Z" id="Fill-9"></path>
            <path d="M37.6564,22.7083 C37.6564,23.2753 38.0134,23.6673 38.5664,23.6673 C39.0984,23.6673 39.3854,23.4013 39.5044,23.2123 L39.5184,23.2123 L39.5394,23.5833 L40.0854,23.5833 C40.0714,23.4923 40.0434,23.1703 40.0434,22.8833 L40.0434,21.4553 C40.0434,20.5663 39.6514,20.1393 38.9164,20.1393 C38.2864,20.1393 37.9434,20.3983 37.7684,20.5313 L37.9784,20.9513 C38.1254,20.8323 38.4054,20.6433 38.8114,20.6433 C39.2454,20.6433 39.4764,20.8673 39.4764,21.4553 L39.4764,21.7143 L39.1964,21.7143 C38.3214,21.7143 37.6564,22.0153 37.6564,22.7083 Z M38.6924,23.1843 C38.4474,23.1843 38.2234,23.0023 38.2234,22.6733 C38.2234,22.3163 38.5174,22.1623 39.1544,22.1343 L39.4764,22.1203 L39.4764,22.8483 C39.3504,22.9813 39.1404,23.1843 38.6924,23.1843 Z" id="Fill-10"></path>
            <path d="M41.6254,18.5713 L41.0584,18.6343 L41.0584,22.7853 C41.0584,23.4433 41.3174,23.6463 41.7584,23.6463 C42.0244,23.6463 42.1854,23.5623 42.2204,23.5413 L42.1854,23.1353 C42.1504,23.1493 42.0664,23.1773 41.9474,23.1773 C41.7234,23.1773 41.6254,23.0793 41.6254,22.7573 L41.6254,18.5713 Z" id="Fill-11"></path>
            <path d="M45.2724,21.4553 C45.2724,20.6083 44.8384,20.1393 44.1454,20.1393 C43.3824,20.1393 42.6894,20.6853 42.6894,21.8613 C42.6894,23.1143 43.2634,23.6673 44.2154,23.6673 C44.9294,23.6673 45.2164,23.3663 45.3284,23.2543 L45.1604,22.8483 C45.0694,22.9323 44.8104,23.1633 44.2784,23.1633 C43.6694,23.1633 43.2984,22.7993 43.2564,22.0223 L45.2094,22.0223 C45.2444,21.8613 45.2724,21.6793 45.2724,21.4553 Z M44.0964,20.6223 C44.4954,20.6223 44.7404,20.8883 44.7404,21.3573 C44.7404,21.4273 44.7404,21.4973 44.7264,21.5813 L43.2564,21.5813 C43.2984,20.9653 43.6274,20.6223 44.0964,20.6223 Z" id="Fill-12"></path>
            <path d="M50.9354,20.2093 C50.9354,19.2783 50.3264,18.7533 48.9474,18.7533 L47.8834,18.7533 L47.8834,23.5833 L48.4924,23.5833 L48.4924,21.8403 L48.9124,21.8403 C50.2984,21.8403 50.9354,21.2033 50.9354,20.2093 Z M50.2844,20.2443 C50.2844,20.9303 49.8644,21.3363 48.9124,21.3363 L48.4924,21.3363 L48.4924,19.2573 L48.9474,19.2573 C49.8784,19.2573 50.2844,19.5933 50.2844,20.2443 Z" id="Fill-13"></path>
            <path d="M53.4274,20.2093 C53.3434,20.1813 53.2594,20.1603 53.1194,20.1603 C52.5944,20.1603 52.3704,20.4753 52.2654,20.7203 L52.2514,20.7203 L52.2514,20.2233 L51.7264,20.2233 L51.7264,23.5833 L52.2934,23.5833 L52.2934,21.1403 C52.3914,20.9373 52.6224,20.6643 53.0704,20.6643 C53.2524,20.6643 53.3364,20.7063 53.3784,20.7273 L53.4274,20.2093 Z" id="Fill-14"></path>
            <path d="M56.8294,21.9033 C56.8294,20.6853 56.2064,20.1393 55.3804,20.1393 C54.5754,20.1393 53.8474,20.6853 53.8474,21.9033 C53.8474,23.1073 54.4704,23.6673 55.2964,23.6673 C56.1014,23.6673 56.8294,23.1073 56.8294,21.9033 Z M56.2414,21.9033 C56.2414,22.7573 55.8774,23.1633 55.3384,23.1633 C54.8134,23.1633 54.4354,22.7573 54.4354,21.9033 C54.4354,21.0423 54.8134,20.6433 55.3384,20.6433 C55.8634,20.6433 56.2414,21.0423 56.2414,21.9033 Z" id="Fill-15"></path>
            <path d="M58.3834,19.0123 C58.3834,18.7673 58.2014,18.6063 57.9774,18.6063 C57.7534,18.6063 57.5784,18.7673 57.5784,19.0123 C57.5784,19.2573 57.7534,19.4113 57.9774,19.4113 C58.2014,19.4113 58.3834,19.2573 58.3834,19.0123 Z M58.2574,20.2233 L57.6904,20.2233 L57.6904,23.4153 C57.6904,24.2623 57.4314,24.5353 56.8224,24.5843 L56.8714,25.0673 C57.7674,25.0323 58.2574,24.5843 58.2574,23.4993 L58.2574,20.2233 Z" id="Fill-16"></path>
            <path d="M61.7084,21.4553 C61.7084,20.6083 61.2744,20.1393 60.5814,20.1393 C59.8184,20.1393 59.1254,20.6853 59.1254,21.8613 C59.1254,23.1143 59.6994,23.6673 60.6514,23.6673 C61.3654,23.6673 61.6524,23.3663 61.7644,23.2543 L61.5964,22.8483 C61.5054,22.9323 61.2464,23.1633 60.7144,23.1633 C60.1054,23.1633 59.7344,22.7993 59.6924,22.0223 L61.6454,22.0223 C61.6804,21.8613 61.7084,21.6793 61.7084,21.4553 Z M60.5324,20.6223 C60.9314,20.6223 61.1764,20.8883 61.1764,21.3573 C61.1764,21.4273 61.1764,21.4973 61.1624,21.5813 L59.6924,21.5813 C59.7344,20.9653 60.0634,20.6223 60.5324,20.6223 Z" id="Fill-17"></path>
            <polygon id="Fill-18" points="65.2574 20.2233 64.5714 20.2233 63.4654 21.5323 63.1714 21.5323 63.1714 18.5713 62.6044 18.6343 62.6044 23.5833 63.1714 23.5833 63.1714 22.0153 63.4514 22.0153 64.5994 23.5833 65.3134 23.5833 63.9204 21.7353"></polygon>
            <path d="M67.6024,20.2233 L66.6644,20.2233 L66.6644,19.2853 L66.1604,19.2853 L66.0974,20.2233 L65.6354,20.3073 L65.6354,20.7063 L66.0974,20.7063 L66.0974,22.5193 C66.0974,23.2893 66.3564,23.6673 67.0144,23.6673 C67.3714,23.6673 67.5604,23.5553 67.6164,23.5203 L67.5604,23.0653 C67.4904,23.1003 67.3504,23.1633 67.1684,23.1633 C66.7974,23.1633 66.6644,22.9673 66.6644,22.4423 L66.6644,20.7063 L67.5324,20.7063 L67.6024,20.2233 Z" id="Fill-19"></path>
            <path d="M70.7174,21.4553 C70.7174,20.6083 70.2834,20.1393 69.5904,20.1393 C68.8274,20.1393 68.1344,20.6853 68.1344,21.8613 C68.1344,23.1143 68.7084,23.6673 69.6604,23.6673 C70.3744,23.6673 70.6614,23.3663 70.7734,23.2543 L70.6054,22.8483 C70.5144,22.9323 70.2554,23.1633 69.7234,23.1633 C69.1144,23.1633 68.7434,22.7993 68.7014,22.0223 L70.6544,22.0223 C70.6894,21.8613 70.7174,21.6793 70.7174,21.4553 Z M69.5414,20.6223 C69.9404,20.6223 70.1854,20.8883 70.1854,21.3573 C70.1854,21.4273 70.1854,21.4973 70.1714,21.5813 L68.7014,21.5813 C68.7434,20.9653 69.0724,20.6223 69.5414,20.6223 Z" id="Fill-20"></path>
            <polygon id="Fill-21" points="71.5574 21.6793 73.4474 21.6793 73.4474 21.2173 71.5574 21.2173"></polygon>
            <path d="M77.9974,23.5833 L76.1914,18.7533 L75.7084,18.7533 L73.9024,23.5833 L74.5254,23.5833 L75.0574,22.0363 L76.7864,22.0363 L77.3184,23.5833 L77.9974,23.5833 Z M76.6324,21.5743 L75.2184,21.5743 L75.9254,19.5513 L75.9394,19.5513 L76.6324,21.5743 Z" id="Fill-22"></path>
            <path d="M81.4344,21.8263 C81.4344,20.6853 80.9374,20.1393 80.1394,20.1393 C79.4814,20.1393 79.2294,20.4753 79.1384,20.6013 L79.1244,20.6013 L79.1244,20.2233 L78.5994,20.2233 L78.5994,24.9833 L79.1664,24.9833 L79.1664,23.5343 C79.2924,23.5833 79.4954,23.6463 79.8034,23.6463 C80.7204,23.6463 81.4344,23.1003 81.4344,21.8263 Z M79.9504,20.6433 C80.4964,20.6433 80.8464,21.0073 80.8464,21.8683 C80.8464,22.7993 80.4614,23.1423 79.7684,23.1423 C79.4744,23.1423 79.2854,23.0513 79.1664,22.9673 L79.1664,21.0143 C79.2644,20.8953 79.4954,20.6433 79.9504,20.6433 Z" id="Fill-23"></path>
            <path d="M85.1374,21.8263 C85.1374,20.6853 84.6404,20.1393 83.8424,20.1393 C83.1844,20.1393 82.9324,20.4753 82.8414,20.6013 L82.8274,20.6013 L82.8274,20.2233 L82.3024,20.2233 L82.3024,24.9833 L82.8694,24.9833 L82.8694,23.5343 C82.9954,23.5833 83.1984,23.6463 83.5064,23.6463 C84.4234,23.6463 85.1374,23.1003 85.1374,21.8263 Z M83.6534,20.6433 C84.1994,20.6433 84.5494,21.0073 84.5494,21.8683 C84.5494,22.7993 84.1644,23.1423 83.4714,23.1423 C83.1774,23.1423 82.9884,23.0513 82.8694,22.9673 L82.8694,21.0143 C82.9674,20.8953 83.1984,20.6433 83.6534,20.6433 Z" id="Fill-24"></path>
            <path d="M8.3138,6.7993 C9.4117,6.7993 10.303,7.6907 10.303,8.7886 C10.303,9.8865 9.4117,10.7778 8.3138,10.7778 C7.2159,10.7778 6.3245,9.8865 6.3245,8.7886 C6.3245,7.6907 7.2159,6.7993 8.3138,6.7993 Z" id="Fill-25"></path>
            <polygon id="Fill-26" points="16.2964 9.2913 19.9762 5.6114 21.4097 5.6211 21.3904 7.0257 13.9706 14.4455 13.897 14.518 13.8228 14.5895 13.7479 14.6598 13.6723 14.729 13.596 14.7971 13.5191 14.8639 13.4415 14.9297 13.3633 14.9943 13.2845 15.0578 13.205 15.1201 13.1249 15.1812 13.0444 15.2413 12.9631 15.3002 12.8813 15.3579 12.799 15.4144 12.7161 15.4699 12.6327 15.5242 12.5487 15.5774 12.4643 15.6295 12.3794 15.6803 12.2939 15.73 12.2079 15.7787 12.1215 15.8261 12.0346 15.8724 11.9474 15.9175 11.8596 15.9616 11.7715 16.0044 11.6829 16.0462 11.5939 16.0867 11.5045 16.1262 11.4148 16.1645 11.3247 16.2017 11.2343 16.2376 11.1434 16.2725 11.0523 16.3062 10.9608 16.3388 10.869 16.3703 10.777 16.4006 10.6846 16.4298 10.5919 16.4578 10.499 16.4846 10.4058 16.5103 10.3124 16.535 10.2187 16.5584 10.1249 16.5807 10.0308 16.6018 9.9365 16.6218 9.842 16.6407 9.7474 16.6584 9.6525 16.675 9.5576 16.6905 9.4624 16.7048 9.3672 16.7179 9.2718 16.7299 9.1764 16.7408 9.0807 16.7504 8.985 16.759 8.8893 16.7665 8.7935 16.7728 8.6976 16.7779 8.6016 16.7819 8.5057 16.7848 8.4097 16.7865 8.3137 16.787 8.2178 16.7865 8.1217 16.7848 8.0258 16.7819 7.9298 16.7779 7.8339 16.7728 7.7381 16.7665 7.6424 16.759 7.5467 16.7504 7.451 16.7408 7.3556 16.7299 7.2602 16.7179 7.165 16.7048 7.0698 16.6905 6.9749 16.675 6.88 16.6584 6.7854 16.6407 6.6909 16.6218 6.5966 16.6018 6.5025 16.5807 6.4087 16.5584 6.315 16.535 6.2216 16.5103 6.1285 16.4846 6.0356 16.4578 5.9428 16.4298 5.8504 16.4006 5.7584 16.3703 5.6666 16.3388 5.5752 16.3062 5.484 16.2725 5.3931 16.2376 5.3027 16.2017 5.2126 16.1645 5.1229 16.1262 5.0335 16.0867 4.9446 16.0462 4.8559 16.0044 4.7678 15.9616 4.68 15.9175 4.5928 15.8724 4.5059 15.8261 4.4195 15.7787 4.3335 15.73 4.2481 15.6803 4.1631 15.6295 4.0787 15.5774 3.9947 15.5242 3.9113 15.4699 3.8285 15.4144 3.7461 15.3579 3.6643 15.3002 3.583 15.2413 3.5025 15.1812 3.4224 15.1201 3.343 15.0578 3.2641 14.9943 3.1859 14.9297 3.1083 14.8639 3.0314 14.7971 2.9551 14.729 2.8795 14.6598 2.8046 14.5895 2.7304 14.518 2.6569 14.4455 2.5843 14.3719 2.5128 14.2978 2.4425 14.2228 2.3733 14.1472 2.3052 14.0709 2.2384 13.9941 2.1726 13.9164 2.108 13.8382 2.0446 13.7594 1.9823 13.68 1.9211 13.5999 1.8611 13.5193 1.8022 13.4381 1.7444 13.3563 1.6879 13.2739 1.6325 13.191 1.5781 13.1076 1.5249 13.0236 1.4729 12.9392 1.422 12.8543 1.3723 12.7688 1.3237 12.6828 1.2762 12.5965 1.2299 12.5096 1.1848 12.4223 1.1407 12.3346 1.0979 12.2465 1.0562 12.1578 1.0156 12.0688 0.9761 11.9794 0.9379 11.8897 0.9007 11.7996 0.8647 11.7092 0.8298 11.6183 0.7961 11.5272 0.7635 11.4358 0.732 11.3439 0.7017 11.2519 0.6726 11.1596 0.6446 11.0668 0.6177 10.9739 0.592 10.8807 0.5674 10.7873 0.5439 10.6936 0.5217 10.5998 0.5005 10.5057 0.4805 10.4114 0.4616 10.3169 0.444 10.2223 0.4273 10.1275 0.4119 10.0325 0.3976 9.9373 0.3844 9.8421 0.3725 9.7468 0.3616 9.6513 0.3519 9.5556 0.3433 9.46 0.3358 9.3642 0.3296 9.2684 0.3245 9.1725 0.3204 9.0766 0.3175 8.9806 0.3158 8.8846 0.3153 8.7886 0.3158 8.6927 0.3175 8.5966 0.3204 8.5007 0.3245 8.4047 0.3296 8.3089 0.3358 8.213 0.3433 8.1173 0.3519 8.0216 0.3616 7.926 0.3725 7.8305 0.3844 7.7351 0.3976 7.6399 0.4119 7.5448 0.4273 7.4498 0.444 7.355 0.4616 7.2604 0.4805 7.1658 0.5005 7.0716 0.5217 6.9774 0.5439 6.8836 0.5674 6.7899 0.592 6.6965 0.6177 6.6034 0.6446 6.5105 0.6726 6.4177 0.7017 6.3254 0.732 6.2334 0.7635 6.1415 0.7961 6.0501 0.8298 5.9589 0.8647 5.8681 0.9007 5.7776 0.9379 5.6875 0.9761 5.5978 1.0156 5.5084 1.0562 5.4195 1.0979 5.3308 1.1407 5.2427 1.1848 5.1549 1.2299 5.0677 1.2762 4.9808 1.3237 4.8945 1.3723 4.8085 1.422 4.723 1.4729 4.6381 1.5249 4.5536 1.5781 4.4696 1.6325 4.3863 1.6879 4.3034 1.7444 4.221 1.8022 4.1392 1.8611 4.0579 1.9211 3.9774 1.9823 3.8973 2.0446 3.8179 2.108 3.739 2.1726 3.6608 2.2384 3.5832 2.3052 3.5063 2.3733 3.43 2.4425 3.3544 2.5128 3.2795 2.5843 3.2053 2.6569 3.1318 2.7304 3.0592 2.8046 2.9877 2.8795 2.9175 2.9551 2.8482 3.0314 2.7801 3.1083 2.7133 3.1859 2.6475 3.2641 2.5829 3.343 2.5195 3.4224 2.4572 3.5025 2.396 3.583 2.336 3.6643 2.2771 3.7461 2.2193 3.8285 2.1628 3.9113 2.1074 3.9947 2.053 4.0787 1.9998 4.1631 1.9478 4.2481 1.897 4.3335 1.8472 4.4195 1.7986 4.5059 1.7511 4.5928 1.7048 4.68 1.6597 4.7678 1.6157 4.8559 1.5728 4.9446 1.5311 5.0335 1.4905 5.1229 1.4511 5.2126 1.4128 5.3027 1.3756 5.3931 1.3396 5.484 1.3048 5.5752 1.271 5.6666 1.2384 5.7584 1.207 5.8504 1.1766 5.9428 1.1475 6.0356 1.1195 6.1285 1.0926 6.2216 1.067 6.315 1.0423 6.4087 1.0189 6.5025 0.9966 6.5966 0.9755 6.6909 0.9554 6.7854 0.9366 6.88 0.9189 6.9749 0.9023 7.0698 0.8868 7.165 0.8725 7.2602 0.8593 7.3556 0.8474 7.451 0.8365 7.5467 0.8268 7.6424 0.8183 7.7381 0.8108 7.8339 0.8045 7.9298 0.7994 8.0258 0.7954 8.1217 0.7925 8.2178 0.7908 8.3137 0.7903 8.4097 0.7908 8.5057 0.7925 8.6016 0.7954 8.6976 0.7994 8.7935 0.8045 8.8893 0.8108 8.985 0.8183 9.0807 0.8268 9.1764 0.8365 9.2718 0.8474 9.3672 0.8593 9.4624 0.8725 9.5576 0.8868 9.6525 0.9023 9.7474 0.9189 9.842 0.9366 9.9365 0.9554 10.0308 0.9755 10.1249 0.9966 10.2187 1.0189 10.3124 1.0423 10.4058 1.067 10.499 1.0926 10.5919 1.1195 10.6846 1.1475 10.777 1.1766 10.869 1.207 10.9608 1.2384 11.0523 1.271 11.1434 1.3048 11.2343 1.3396 11.3247 1.3756 11.4148 1.4128 11.5045 1.4511 11.5939 1.4905 11.6829 1.5311 11.7715 1.5728 11.8596 1.6157 11.9474 1.6597 12.0346 1.7048 12.1215 1.7511 12.2079 1.7986 12.2939 1.8472 12.3794 1.897 12.4643 1.9478 12.5487 1.9998 12.6327 2.053 12.7161 2.1074 12.799 2.1628 12.8813 2.2193 12.9631 2.2771 13.0444 2.336 13.1249 2.396 13.205 2.4572 13.2845 2.5195 13.3633 2.5829 13.4415 2.6475 13.5191 2.7133 13.596 2.7801 13.6723 2.8482 13.7479 2.9175 13.8228 2.9877 13.897 3.0592 13.9706 3.1318 14.0431 3.2053 14.1146 3.2795 14.1849 3.3544 14.2541 3.43 14.3222 3.5063 14.389 3.5832 14.4548 3.6608 14.5194 3.739 14.5828 3.8179 14.6451 3.8973 14.7063 3.9774 14.7663 4.0579 14.8252 4.1392 14.883 4.221 14.9395 4.3034 14.9949 4.3863 15.0493 4.4696 15.1025 4.5536 15.1545 4.6381 15.2054 4.723 15.2551 4.8085 15.3037 4.8945 15.3512 4.9808 15.3975 5.0677 15.4426 5.1549 15.4867 5.2427 15.5295 5.3308 15.5712 5.4195 15.6118 5.5084 15.6513 5.5978 15.6895 5.6875 15.7267 5.7776 15.7627 5.8681 15.7976 5.9589 15.8313 6.0501 15.8639 6.1415 15.8954 6.2334 15.9257 6.3254 15.9548 6.4177 15.9828 6.5105 16.0097 6.6034 16.0354 6.6965 16.0601 6.7899 16.0835 6.8836 16.1057 6.9774 16.1269 7.0716 16.1469 7.1658 16.1658 7.2604 16.1835 7.355 16.2001 7.4498 16.2156 7.5448 16.2298 7.6399 16.243 7.7351 16.2549 7.8305 16.264 7.9095 14.1937 9.9798 14.2022 9.937 14.2154 9.8662 14.2279 9.7948 14.2395 9.7234 14.2502 9.6522 14.2601 9.5805 14.2691 9.5087 14.2772 9.4373 14.2846 9.365 14.291 9.2932 14.2966 9.2216 14.3013 9.1493 14.3052 9.0773 14.3082 9.0049 14.3104 8.9329 14.3117 8.8609 14.3121 8.7886 14.3117 8.7164 14.3104 8.6444 14.3082 8.5723 14.3052 8.5002 14.3013 8.4278 14.2966 8.3557 14.291 8.2839 14.2847 8.2121 14.2773 8.1404 14.2691 8.0685 14.2601 7.997 14.2502 7.9252 14.2395 7.8537 14.2279 7.7822 14.2155 7.7111 14.2022 7.6404 14.188 7.5692 14.1729 7.4984 14.1571 7.4277 14.1404 7.3576 14.1228 7.2874 14.1043 7.2168 14.085 7.1472 14.065 7.0778 14.044 7.0083 14.022 6.9388 13.9993 6.8699 13.9759 6.8013 13.9514 6.7326 13.9262 6.6646 13.9001 6.5965 13.8731 6.5287 13.8454 6.4615 13.8167 6.3944 13.7869 6.327 13.7567 6.2606 13.7257 6.1947 13.6934 6.1284 13.6604 6.0626 13.6269 5.9978 13.5922 5.9328 13.5566 5.868 13.5203 5.8039 13.4832 5.7399 13.445 5.6762 13.4062 5.6132 13.3664 5.5504 13.3256 5.4878 13.2842 5.4259 13.2419 5.3643 13.1986 5.3029 13.1543 5.2419 13.1094 5.1815 13.0638 5.1219 13.0172 5.0624 12.9693 5.0029 12.9207 4.9442 12.8716 4.8861 12.821 4.8281 12.7698 4.7706 12.718 4.7139 12.6651 4.6576 12.6112 4.6016 12.5563 4.546 12.5008 4.4911 12.4448 4.4372 12.3885 4.3843 12.3317 4.3325 12.2743 4.2813 12.2162 4.2308 12.1582 4.1816 12.0994 4.133 12.0399 4.0852 11.9805 4.0386 11.9209 3.993 11.8605 3.948 11.7994 3.9037 11.738 3.8604 11.6764 3.8181 11.6146 3.7767 11.552 3.7359 11.4892 3.6962 11.4261 3.6573 11.3624 3.6192 11.2985 3.582 11.2343 3.5457 11.1695 3.5101 11.1045 3.4754 11.0398 3.442 10.9739 3.4089 10.9074 3.3766 10.8418 3.3456 10.7754 3.3154 10.708 3.2856 10.6409 3.257 10.5736 3.2292 10.5057 3.2022 10.4378 3.1761 10.3698 3.1509 10.3011 3.1265 10.2323 3.1029 10.1635 3.0803 10.0941 3.0584 10.0246 3.0374 9.9551 3.0173 9.8855 2.9981 9.8149 2.9795 9.7448 2.9619 9.6745 2.9452 9.6039 2.9294 9.5332 2.9144 9.462 2.9001 9.3913 2.8869 9.3201 2.8745 9.2485 2.8628 9.1769 2.852 9.1055 2.8422 9.0339 2.8332 8.9621 2.825 8.8902 2.8177 8.8184 2.8112 8.7467 2.8057 8.6745 2.801 8.6023 2.7971 8.53 2.7941 8.4581 2.7919 8.386 2.7907 8.3137 2.7902 8.2414 2.7907 8.1693 2.7919 8.0973 2.7941 8.0251 2.7971 7.9531 2.801 7.8809 2.8057 7.8091 2.8113 7.7372 2.8177 7.6652 2.825 7.5936 2.8332 7.522 2.8422 7.4501 2.8521 7.3789 2.8628 7.3075 2.8744 7.236 2.8869 7.1652 2.9001 7.0945 2.9143 7.0237 2.9293 6.9527 2.9453 6.8823 2.962 6.8124 2.9795 6.7424 2.9979 6.6724 3.0173 6.6025 3.0374 6.5334 3.0584 6.4642 3.0802 6.3949 3.1031 6.3262 3.1265 6.2579 3.1509 6.1896 3.1762 6.1216 3.2023 6.0539 3.2293 5.9862 3.2571 5.9192 3.2857 5.8525 3.3151 5.7858 3.3456 5.7195 3.3768 5.6537 3.4088 5.588 3.4418 5.5228 3.4756 5.4578 3.5101 5.3931 3.5457 5.3289 3.582 5.265 3.6192 5.2014 3.6573 5.1382 3.6962 5.0753 3.7361 5.013 3.7766 4.9511 3.818 4.8893 3.8606 4.828 3.9038 4.7673 3.9478 4.7068 3.9928 4.6468 4.0387 4.5873 4.0854 4.528 4.133 4.4693 4.1815 4.4111 4.2308 4.3532 4.2812 4.2959 4.3324 4.239 4.3844 4.1824 4.4374 4.1266 4.4912 4.0711 4.546 4.0163 4.6015 3.9625 4.6574 3.9095 4.7139 3.8575 4.7708 3.8063 4.8281 3.7559 4.886 3.7066 4.9442 3.6581 5.0029 3.6105 5.0622 3.5638 5.1217 3.5179 5.1817 3.4729 5.2422 3.4289 5.3029 3.3857 5.3642 3.3431 5.426 3.3017 5.4879 3.2611 5.5502 3.2213 5.6132 3.1824 5.6764 3.1443 5.7399 3.1071 5.8039 3.0708 5.868 3.0352 5.9327 3.0006 5.9977 2.9669 6.0629 2.9339 6.1286 2.9019 6.1945 2.8707 6.2607 2.8402 6.3274 2.8108 6.3942 2.7822 6.4611 2.7544 6.5288 2.7274 6.5965 2.7013 6.6645 2.6759 6.7328 2.6516 6.8011 2.6281 6.8698 2.6052 6.9391 2.5835 7.0083 2.5625 7.0774 2.5424 7.1474 2.523 7.2174 2.5045 7.2873 2.4871 7.3572 2.4704 7.4277 2.4544 7.4987 2.4393 7.5694 2.4252 7.6401 2.412 7.7109 2.3995 7.7824 2.3879 7.8538 2.3772 7.925 2.3673 7.9969 2.3583 8.0685 2.3501 8.1401 2.3428 8.2121 2.3364 8.284 2.3308 8.3558 2.3261 8.428 2.3222 8.5001 2.3192 8.5722 2.317 8.6442 2.3157 8.7164 2.3153 8.7886 2.3157 8.8609 2.317 8.933 2.3192 9.0049 2.3222 9.0772 2.3261 9.1494 2.3308 9.2216 2.3363 9.2933 2.3428 9.3651 2.3501 9.437 2.3582 9.5088 2.3673 9.5804 2.3771 9.6519 2.3879 9.7234 2.3995 9.7951 2.412 9.8662 2.4252 9.937 2.4395 10.0081 2.4545 10.0788 2.4703 10.1494 2.487 10.2197 2.5045 10.2898 2.5231 10.3605 2.5424 10.43 2.5625 10.4995 2.5835 10.569 2.6054 10.6384 2.6279 10.7072 2.6516 10.776 2.676 10.8447 2.7012 10.9127 2.7273 10.9807 2.7543 11.0485 2.7821 11.1158 2.8107 11.1829 2.8405 11.2503 2.8707 11.3167 2.9017 11.3824 2.934 11.4488 2.9671 11.5147 3.0005 11.5794 3.0352 11.6444 3.0708 11.7093 3.1071 11.7734 3.1443 11.8373 3.1824 11.901 3.2213 11.9641 3.261 12.0269 3.3018 12.0895 3.3432 12.1513 3.3855 12.2129 3.4288 12.2743 3.4731 12.3354 3.518 12.3958 3.5636 12.4554 3.6102 12.5149 3.6581 12.5743 3.7067 12.6331 3.7558 12.6912 3.8064 12.7492 3.8576 12.8066 3.9094 12.8634 3.9623 12.9197 4.0162 12.9757 4.0711 13.0313 4.1266 13.0861 4.1826 13.14 4.2389 13.1929 4.2957 13.2447 4.3531 13.2959 4.4112 13.3465 4.4692 13.3956 4.528 13.4442 4.5875 13.4921 4.6469 13.5387 4.7065 13.5843 4.7669 13.6293 4.828 13.6735 4.8894 13.7168 4.951 13.7592 5.0129 13.8005 5.0754 13.8413 5.1382 13.8811 5.2013 13.92 5.265 13.9581 5.3289 13.9953 5.3931 14.0315 5.4579 14.0671 5.5229 14.1018 5.5877 14.1353 5.6535 14.1684 5.7198 14.2006 5.7857 14.2317 5.8521 14.2618 5.9194 14.2916 5.9866 14.3203 6.0538 14.348 6.1216 14.375 6.1896 14.4011 6.2577 14.4263 6.3264 14.4508 6.395 14.4743 6.4639 14.497 6.5334 14.519 6.6029 14.5399 6.6723 14.56 6.7419 14.5792 6.8125 14.5977 6.8827 14.6153 6.9528 14.632 7.0235 14.6479 7.0943 14.6629 7.1655 14.6771 7.2362 14.6904 7.3073 14.7028 7.3788 14.7145 7.4503 14.7251 7.5221 14.735 7.5936 14.744 7.6654 14.7522 7.7371 14.7596 7.809 14.7659 7.8807 14.7715 7.9529 14.7762 8.0253 14.7802 8.0974 14.7831 8.1695 14.7853 8.2414 14.7866 8.3137 14.787 8.386 14.7866 8.458 14.7853 8.53 14.7831 8.6024 14.7802 8.6743 14.7763 8.7467 14.7715 8.8183 14.7659 8.8901 14.7595 8.9623 14.7522 9.0338 14.744 9.1056 14.735 9.1773 14.7251 9.2485 14.7145 9.3199 14.7029 9.3913 14.6904 9.462 14.6771 9.5328 14.663 9.6037 14.6479 9.6747 14.6319 9.7452 14.6152 9.815 14.5978 9.8851 14.5793 9.955 14.56 10.0248 14.5398 10.0941 14.5189 10.1634 14.497 10.2324 14.4743 10.3011 14.4507 10.3696 14.4263 10.4379 14.4011 10.5058 14.375 10.5736 14.348 10.6412 14.3202 10.7083 14.2915 10.7749 14.2621 10.8415 14.2317 10.9079 14.2005 10.9736 14.1685 11.0393 14.1356 11.1049 14.1016 11.1697 14.067 11.2343 14.0315 11.2985 13.9953 11.3624 13.9581 11.4262 13.9199 11.4891 13.8811 11.552 13.8413 11.6146 13.8005 11.6764 13.7592 11.738 13.7168 11.7995 13.6735 11.8602 13.6294 11.9206 13.5844 11.9808 13.5385 12.0403 13.4917 12.0994 13.4442 12.158 13.3959 12.2162 13.3465 12.2741 13.2961 12.3316 13.2449 12.3884 13.1928 12.445 13.1398 12.5009 13.086 12.5563 13.0313"></polygon>
        </g>
    </g>
</svg>