<?xml version="1.0" encoding="UTF-8" standalone="no"?>
<svg
   xmlns:dc="http://purl.org/dc/elements/1.1/"
   xmlns:cc="http://creativecommons.org/ns#"
   xmlns:rdf="http://www.w3.org/1999/02/22-rdf-syntax-ns#"
   xmlns:svg="http://www.w3.org/2000/svg"
   xmlns="http://www.w3.org/2000/svg"
   id="svg28"
   preserveAspectRatio="xMidYMid meet"
   viewBox="0 0 380.000000 388.000000"
   height="388.000000pt"
   width="380.000000pt"
   version="1.0">
  <metadata
     id="metadata34">
    <rdf:RDF>
      <cc:Work
         rdf:about="">
        <dc:format>image/svg+xml</dc:format>
        <dc:type
           rdf:resource="http://purl.org/dc/dcmitype/StillImage" />
      </cc:Work>
    </rdf:RDF>
  </metadata>
  <defs
     id="defs32" />
  <g
     id="g26"
     stroke="none"
     fill="#000000"
     transform="translate(0.000000,388.000000) scale(0.100000,-0.100000)">
    <path
       id="path2"
       d="M260 3367 c0 -7 21 -62 46 -122 25 -61 51 -126 58 -145 l13 -35 282 -3 c160 -1 281 2 281 7 0 9 -22 65 -46 118 -8 17 -14 34 -14 37 0 4 -14 40 -31 81 l-32 75 -278 0 c-220 0 -279 -3 -279 -13z" />
    <path
       id="path4"
       d="M1932 3358 c-6 -13 -30 -70 -52 -128 -22 -58 -45 -113 -50 -122 -27 -49 -30 -48 270 -46 l281 3 55 135 c30 74 57 145 60 158 l6 22 -279 0 -280 0 -11 -22z" />
    <path
       id="path6"
       d="M1035 3178 c4 -13 12 -36 20 -53 15 -34 80 -201 89 -227 5 -17 28 -18 286 -18 154 0 280 4 280 8 0 7 -43 119 -97 250 l-26 62 -279 0 -279 0 6 -22z" />
    <path
       id="path8"
       d="M2695 3153 c-10 -27 -23 -61 -31 -78 -19 -44 -74 -186 -74 -191 0 -2 125 -4 279 -4 l278 0 37 93 c21 50 43 106 51 122 25 60 35 86 35 95 0 6 -109 10 -279 10 l-278 0 -18 -47z" />
    <path
       id="path10"
       d="M410 2997 c0 -12 35 -103 97 -254 l26 -63 279 0 c195 0 278 3 278 11 0 10 -65 177 -94 244 -8 17 -17 40 -21 53 l-6 22 -280 0 c-221 0 -279 -3 -279 -13z" />
    <path
       id="path12"
       d="M1780 2983 c-7 -16 -21 -52 -31 -82 -10 -30 -24 -60 -30 -67 -9 -11 -65 -14 -276 -14 -248 0 -265 -1 -258 -17 3 -10 32 -82 63 -160 l57 -143 143 0 c110 0 142 -3 142 -13 0 -30 -25 -37 -136 -37 -62 0 -115 -3 -118 -8 -8 -13 108 -291 117 -279 14 20 -4 -34 -29 -91 -13 -29 -24 -58 -24 -65 0 -7 -5 -19 -10 -27 -7 -11 -13 -6 -25 25 -10 22 -23 54 -31 70 -7 17 -21 50 -29 75 -9 25 -21 57 -28 73 l-12 27 -272 0 c-212 0 -273 -3 -273 -12 0 -16 19 -66 48 -131 12 -27 22 -52 22 -55 0 -4 10 -30 22 -59 l22 -53 545 -2 c300 -2 459 -4 354 -5 -106 -2 -193 -7 -193 -12 0 -39 7 -41 186 -41 190 0 190 0 160 -58 -7 -15 -17 -37 -20 -50 l-7 -22 417 2 418 3 13 25 c7 14 31 72 53 130 22 58 46 115 51 127 6 11 8 26 5 32 -9 15 -519 15 -547 1 -10 -6 -19 -16 -19 -23 -1 -19 -86 -227 -99 -240 -8 -8 -11 -7 -11 3 0 16 -72 198 -95 240 -9 15 -23 25 -37 25 -28 1 -27 15 8 93 33 75 32 82 -15 82 -37 0 -50 13 -51 52 0 4 28 8 62 10 l62 3 23 60 c13 33 31 76 39 95 9 19 20 46 26 60 6 14 14 33 19 42 24 47 21 48 -176 48 l-185 0 -10 26 c-6 14 -10 27 -10 30 0 2 96 4 213 4 l214 0 26 63 c62 151 97 242 97 254 0 10 -58 13 -278 13 l-279 0 -13 -27z m63 -730 c-62 -2 -165 -2 -230 0 -65 1 -14 3 112 3 127 0 180 -2 118 -3z" />
    <path
       id="path14"
       d="M2550 2794 c-6 -14 -10 -28 -10 -31 0 -4 -8 -25 -19 -47 -10 -23 -24 -57 -31 -76 -7 -19 -22 -55 -32 -79 -12 -25 -16 -47 -11 -52 5 -5 128 -8 277 -7 l267 3 13 25 c28 53 116 269 116 283 0 4 -126 7 -280 7 l-280 0 -10 -26z" />
    <path
       id="path16"
       d="M570 2605 c0 -8 4 -23 9 -33 5 -9 28 -64 51 -122 23 -58 45 -112 49 -120 7 -13 51 -15 286 -18 221 -2 276 0 272 10 -18 45 -82 198 -92 223 -7 17 -16 40 -20 53 l-6 22 -275 0 c-238 0 -274 -2 -274 -15z" />
    <path
       id="path18"
       d="M2413 2438 c-5 -7 -16 -29 -23 -48 -7 -19 -19 -48 -26 -65 -20 -48 -74 -186 -74 -191 0 -2 125 -4 279 -4 l279 0 22 58 c13 31 29 71 36 87 24 56 64 162 64 168 0 4 -123 7 -274 7 -207 0 -276 -3 -283 -12z" />
    <path
       id="path20"
       d="M1833 1688 c-4 -7 -17 -38 -28 -68 l-20 -55 -52 -3 c-51 -3 -52 -3 -41 -28 7 -15 19 -24 35 -24 25 0 30 -18 13 -51 -8 -14 -7 -26 4 -47 l15 -29 390 -1 c289 0 392 2 399 11 11 13 122 285 122 299 0 4 -186 8 -414 8 -321 0 -417 -3 -423 -12z" />
    <path
       id="path22"
       d="M1780 1324 c0 -7 79 -210 101 -259 4 -11 27 -67 49 -125 23 -58 45 -114 50 -125 23 -52 70 -170 70 -176 0 -4 -22 -21 -50 -39 -27 -17 -59 -46 -70 -65 -38 -62 -16 -139 33 -113 22 11 75 49 110 78 24 20 28 18 48 -31 9 -24 21 -45 27 -47 10 -3 45 63 80 153 8 22 17 42 18 44 2 2 20 -15 41 -37 41 -44 77 -62 124 -62 35 0 95 24 121 47 18 16 16 19 -30 62 -58 55 -109 126 -118 164 -5 22 -1 34 18 55 14 15 42 52 63 82 22 30 42 57 45 60 32 30 90 130 90 155 0 37 -100 7 -143 -44 -15 -18 -27 -28 -27 -23 0 5 21 60 46 121 25 62 44 114 42 116 -8 8 -738 17 -738 9z" />
    <path
       id="path24"
       d="M2725 1171 c-40 -24 -85 -78 -85 -101 0 -31 36 -43 112 -38 59 5 68 3 68 -11 0 -10 -4 -21 -8 -27 -13 -13 -66 -154 -101 -267 -46 -146 -39 -217 22 -217 30 1 98 33 119 56 9 11 31 73 48 139 18 66 43 160 56 208 13 48 24 98 24 111 0 19 7 25 35 30 53 10 86 76 53 104 -14 11 -189 32 -266 32 -28 0 -59 -8 -77 -19z" />
  </g>
</svg>
